<mxfile host="drawio-plugin" modified="2024-01-02T15:32:43.960Z" agent="5.0 (Windows NT 6.2; Win64; x64) AppleWebKit/537.36 (KHTML, like Gecko) Chrome/104.0.5112.102 Safari/537.36" etag="QfuRAsxFiBr0M1n_a294" version="20.5.3" type="embed"><diagram id="IPLDLHNpWph5LeSnUwlP" name="Page-1"><mxGraphModel dx="1994" dy="1753" grid="1" gridSize="10" guides="1" tooltips="1" connect="1" arrows="1" fold="1" page="1" pageScale="1" pageWidth="850" pageHeight="1100" background="#ffffff" math="0" shadow="0"><root><mxCell id="0"/><mxCell id="1" parent="0"/><mxCell id="2" style="edgeStyle=orthogonalEdgeStyle;rounded=0;orthogonalLoop=1;jettySize=auto;html=1;exitX=0.5;exitY=0;exitDx=0;exitDy=0;entryX=0;entryY=0.5;entryDx=0;entryDy=0;strokeColor=#050505;" edge="1" parent="1" source="3" target="6"><mxGeometry relative="1" as="geometry"/></mxCell><mxCell id="3" value="&lt;p style=&quot;margin:0px;margin-top:4px;text-align:center;&quot;&gt;&lt;b&gt;Task&lt;/b&gt;&lt;/p&gt;&lt;hr size=&quot;1&quot;&gt;&lt;p style=&quot;margin:0 0 0 4px;line-height:1.6;&quot;&gt;- id: Long&lt;br&gt;- replaced: boolean&lt;br&gt;- status: TaskStatus&lt;br&gt;- title: String&lt;br&gt;- dueDate: LocalDate&lt;br&gt;- createdByUser: User&lt;br&gt;- assignedByUser: User&lt;br&gt;- assignedToUser: User&lt;br&gt;- description: String&lt;br&gt;- creationDate: LocalDate&lt;br&gt;- startDate: LocalDate&lt;br&gt;- tags: Set&amp;lt;String&amp;gt;&lt;/p&gt;&lt;hr size=&quot;1&quot;&gt;&lt;p style=&quot;margin:0 0 0 4px;line-height:1.6;&quot;&gt; description: String&lt;br&gt; overdue: boolean&lt;br&gt; startDate: LocalDate&lt;br&gt; id: Long&lt;br&gt; status: TaskStatus&lt;br&gt; replaced: boolean&lt;br&gt; creationDate: LocalDate&lt;br&gt; assignedToUser: User&lt;br&gt;title: String&lt;br&gt; tags: Set&amp;lt;String&amp;gt;&lt;br&gt; createdByUser: User&lt;br&gt; assignedByUser: User&lt;br&gt; dueDate: LocalDate&lt;/p&gt;" style="verticalAlign=top;align=left;overflow=fill;fontSize=14;fontFamily=Helvetica;html=1;rounded=0;shadow=0;comic=0;labelBackgroundColor=none;strokeWidth=1;" vertex="1" parent="1"><mxGeometry x="80" y="50" width="210" height="604" as="geometry"/></mxCell><mxCell id="4" style="edgeStyle=orthogonalEdgeStyle;rounded=0;orthogonalLoop=1;jettySize=auto;html=1;exitX=0.5;exitY=0;exitDx=0;exitDy=0;entryX=1;entryY=0.5;entryDx=0;entryDy=0;" edge="1" parent="1" source="5" target="6"><mxGeometry relative="1" as="geometry"><Array as="points"><mxPoint x="1099"/><mxPoint x="869"/><mxPoint x="869" y="535"/></Array></mxGeometry></mxCell><mxCell id="36" style="edgeStyle=orthogonalEdgeStyle;rounded=0;orthogonalLoop=1;jettySize=auto;html=1;entryX=1;entryY=0.5;entryDx=0;entryDy=0;strokeColor=#050505;" edge="1" parent="1" source="5" target="6"><mxGeometry relative="1" as="geometry"/></mxCell><mxCell id="5" value="&lt;p style=&quot;margin:0px;margin-top:4px;text-align:center;&quot;&gt;&lt;b&gt;TaskModificationRequest&lt;/b&gt;&lt;/p&gt;&lt;hr size=&quot;1&quot;/&gt;&lt;p style=&quot;margin:0 0 0 4px;line-height:1.6;&quot;&gt;- requestingUser: User&lt;br/&gt;- newTask: Task&lt;br/&gt;- accepted: boolean&lt;br/&gt;- requestDate: LocalDateTime&lt;br/&gt;- id: Long&lt;br/&gt;- originalTask: Task&lt;/p&gt;&lt;hr size=&quot;1&quot;/&gt;&lt;p style=&quot;margin:0 0 0 4px;line-height:1.6;&quot;&gt; originalTask: Task&lt;br/&gt; requestingUser: User&lt;br/&gt; accepted: boolean&lt;br/&gt; id: Long&lt;br/&gt; newTask: Task&lt;br/&gt; requestDate: LocalDateTime&lt;/p&gt;" style="verticalAlign=top;align=left;overflow=fill;fontSize=14;fontFamily=Helvetica;html=1;rounded=0;shadow=0;comic=0;labelBackgroundColor=none;strokeWidth=1;" vertex="1" parent="1"><mxGeometry x="975" y="40" width="247" height="315" as="geometry"/></mxCell><mxCell id="6" value="&lt;p style=&quot;margin:0px;margin-top:4px;text-align:center;&quot;&gt;&lt;b&gt;User&lt;/b&gt;&lt;/p&gt;&lt;hr size=&quot;1&quot;/&gt;&lt;p style=&quot;margin:0 0 0 4px;line-height:1.6;&quot;&gt;- assignedTasks: List&amp;lt;Task&amp;gt;&lt;br/&gt;- lastDeletionDate: LocalDate&lt;br/&gt;- isManager: Boolean&lt;br/&gt;- id: Long&lt;br/&gt;- tokensForTaskDeletion: Integer&lt;br/&gt;- username: String&lt;br/&gt;- tokensForTaskModification: Integer&lt;br/&gt;- lastModificationRequsetDate: LocalDate&lt;br/&gt;- manager: User&lt;br/&gt;- tokensUsed: Integer&lt;br/&gt;- users: List&amp;lt;User&amp;gt;&lt;/p&gt;&lt;hr size=&quot;1&quot;/&gt;&lt;p style=&quot;margin:0 0 0 4px;line-height:1.6;&quot;&gt; lastModificationRequsetDate: LocalDate&lt;br/&gt; tokensForTaskDeletion: Integer&lt;br/&gt; isManager: Boolean&lt;br/&gt; tokensUsed: Integer&lt;br/&gt; id: Long&lt;br/&gt; lastDeletionDate: LocalDate&lt;br/&gt; users: List&amp;lt;User&amp;gt;&lt;br/&gt; username: String&lt;br/&gt; tokensForTaskModification: Integer&lt;br/&gt; assignedTasks: List&amp;lt;Task&amp;gt;&lt;br/&gt; manager: boolean&lt;br/&gt; hisTasks: List&amp;lt;Task&amp;gt;&lt;/p&gt;" style="verticalAlign=top;align=left;overflow=fill;fontSize=14;fontFamily=Helvetica;html=1;rounded=0;shadow=0;comic=0;labelBackgroundColor=none;strokeWidth=1;" vertex="1" parent="1"><mxGeometry x="470" y="250" width="292" height="569" as="geometry"/></mxCell><mxCell id="8" value="TaskStatus" style="swimlane;fontStyle=0;childLayout=stackLayout;horizontal=1;startSize=26;horizontalStack=0;resizeParent=1;resizeParentMax=0;resizeLast=0;collapsible=1;marginBottom=0;whiteSpace=wrap;html=1;fontSize=14;align=left;verticalAlign=top;rounded=0;shadow=0;comic=0;labelBackgroundColor=none;strokeWidth=1;" vertex="1" parent="1"><mxGeometry x="-200" y="40" width="130" height="156" as="geometry"/></mxCell><mxCell id="9" value="+&amp;nbsp;REPLACED" style="text;align=left;verticalAlign=top;spacingLeft=4;spacingRight=4;overflow=hidden;rotatable=0;points=[[0,0.5],[1,0.5]];portConstraint=eastwest;whiteSpace=wrap;html=1;fillColor=default;" vertex="1" parent="8"><mxGeometry y="26" width="130" height="26" as="geometry"/></mxCell><mxCell id="10" value="+ DONE" style="text;align=left;verticalAlign=top;spacingLeft=4;spacingRight=4;overflow=hidden;rotatable=0;points=[[0,0.5],[1,0.5]];portConstraint=eastwest;whiteSpace=wrap;html=1;fillColor=default;" vertex="1" parent="8"><mxGeometry y="52" width="130" height="26" as="geometry"/></mxCell><mxCell id="11" value="+OVERDUE" style="text;strokeColor=none;fillColor=default;align=left;verticalAlign=top;spacingLeft=4;spacingRight=4;overflow=hidden;rotatable=0;points=[[0,0.5],[1,0.5]];portConstraint=eastwest;whiteSpace=wrap;html=1;" vertex="1" parent="8"><mxGeometry y="78" width="130" height="26" as="geometry"/></mxCell><mxCell id="12" value="+&amp;nbsp;TODO" style="text;strokeColor=none;fillColor=default;align=left;verticalAlign=top;spacingLeft=4;spacingRight=4;overflow=hidden;rotatable=0;points=[[0,0.5],[1,0.5]];portConstraint=eastwest;whiteSpace=wrap;html=1;" vertex="1" parent="8"><mxGeometry y="104" width="130" height="26" as="geometry"/></mxCell><mxCell id="13" value="+&amp;nbsp;DOING" style="text;strokeColor=none;fillColor=default;align=left;verticalAlign=top;spacingLeft=4;spacingRight=4;overflow=hidden;rotatable=0;points=[[0,0.5],[1,0.5]];portConstraint=eastwest;whiteSpace=wrap;html=1;" vertex="1" parent="8"><mxGeometry y="130" width="130" height="26" as="geometry"/></mxCell><mxCell id="14" style="edgeStyle=orthogonalEdgeStyle;rounded=0;orthogonalLoop=1;jettySize=auto;html=1;exitX=1;exitY=0.5;exitDx=0;exitDy=0;entryX=0.003;entryY=0.178;entryDx=0;entryDy=0;entryPerimeter=0;strokeColor=#121212;" edge="1" parent="1" source="12" target="3"><mxGeometry relative="1" as="geometry"/></mxCell><mxCell id="15" value="&lt;font style=&quot;font-size: 18px;&quot;&gt;1&lt;/font&gt;" style="text;html=1;align=center;verticalAlign=middle;resizable=0;points=[];autosize=1;strokeColor=none;fillColor=none;" vertex="1" parent="1"><mxGeometry x="395" y="493" width="30" height="40" as="geometry"/></mxCell><mxCell id="16" value="&lt;font style=&quot;font-size: 16px;&quot;&gt;1..*&lt;/font&gt;" style="text;html=1;align=center;verticalAlign=middle;resizable=0;points=[];autosize=1;strokeColor=none;fillColor=none;" vertex="1" parent="1"><mxGeometry x="305" y="-2" width="50" height="30" as="geometry"/></mxCell><mxCell id="17" value="&lt;font style=&quot;font-size: 21px;&quot;&gt;1&lt;/font&gt;" style="text;html=1;align=center;verticalAlign=middle;resizable=0;points=[];autosize=1;strokeColor=none;fillColor=none;" vertex="1" parent="1"><mxGeometry x="790" y="493" width="40" height="40" as="geometry"/></mxCell><mxCell id="18" value="&lt;font style=&quot;font-size: 20px;&quot;&gt;1..*&lt;/font&gt;" style="text;html=1;align=center;verticalAlign=middle;resizable=0;points=[];autosize=1;strokeColor=none;fillColor=none;" vertex="1" parent="1"><mxGeometry x="985" y="-37" width="50" height="40" as="geometry"/></mxCell><mxCell id="37" value="&lt;p style=&quot;line-height: 160%; font-size: 19px;&quot;&gt;&lt;font color=&quot;#1f1f1f&quot;&gt;1..*&lt;/font&gt;&lt;/p&gt;" style="text;html=1;align=center;verticalAlign=middle;resizable=0;points=[];autosize=1;strokeColor=none;fillColor=#FCFCFC;" vertex="1" parent="1"><mxGeometry x="890" y="116" width="50" height="80" as="geometry"/></mxCell><mxCell id="38" value="&lt;p style=&quot;line-height: 160%; font-size: 19px;&quot;&gt;&lt;font color=&quot;#1f1f1f&quot;&gt;1&lt;/font&gt;&lt;/p&gt;" style="text;html=1;align=center;verticalAlign=middle;resizable=0;points=[];autosize=1;strokeColor=none;fillColor=#FCFCFC;" vertex="1" parent="1"><mxGeometry x="790" y="453" width="30" height="80" as="geometry"/></mxCell><mxCell id="39" value="&lt;p style=&quot;line-height: 160%; font-size: 19px;&quot;&gt;&lt;font color=&quot;#1f1f1f&quot;&gt;1..*&lt;/font&gt;&lt;/p&gt;" style="text;html=1;align=center;verticalAlign=middle;resizable=0;points=[];autosize=1;strokeColor=none;fillColor=#FCFCFC;" vertex="1" parent="1"><mxGeometry x="305" y="-57" width="50" height="80" as="geometry"/></mxCell><mxCell id="40" value="&lt;p style=&quot;line-height: 160%; font-size: 19px;&quot;&gt;&lt;font color=&quot;#1f1f1f&quot;&gt;1&lt;/font&gt;&lt;/p&gt;" style="text;html=1;align=center;verticalAlign=middle;resizable=0;points=[];autosize=1;strokeColor=none;fillColor=#FCFCFC;" vertex="1" parent="1"><mxGeometry x="395" y="450" width="30" height="80" as="geometry"/></mxCell></root></mxGraphModel></diagram></mxfile>